<svg xmlns="http://www.w3.org/2000/svg"  viewBox="0 0 100 100" width="100px" height="100px" baseProfile="basic"><circle cx="12.875" cy="29.042" r="2" fill="#78a0cf"/><circle cx="76.875" cy="13.042" r="1" fill="#f1bc19"/><circle cx="49.875" cy="50.042" r="37" fill="#cee1f4"/><circle cx="82.875" cy="15.042" r="4" fill="#f1bc19"/><circle cx="86.875" cy="24.042" r="2" fill="#78a0cf"/><circle cx="80.875" cy="76.042" r="2" fill="#fbcd59"/><circle cx="14.875" cy="63.042" r="4" fill="#fbcd59"/><circle cx="24.875" cy="87.042" r="2" fill="#78a0cf"/><circle cx="28.375" cy="26.542" r="2.5" fill="#fff"/><circle cx="20.875" cy="62.042" r="1" fill="#f1bc19"/><circle cx="81.875" cy="40.042" r="1" fill="#fff"/><path fill="#605e60" d="M65.224,33.9h-3.673l0,0c-0.061,0.031-0.132,0.062-0.23,0.081c-0.44,0.631-0.175,0.321-0.951,0.848	c0.002,1.058,0.032,1.171,0.277,2.108c0.006,0.022,0.003,0.044-0.01,0.064c-0.012,0.02-0.029,0.032-0.052,0.037	c-0.188,0.041-0.458,0.111-0.614,0.141c0.005,0.033,0.079,0.632-0.005,1.078c-0.131,0.7-1.776,2.232-2.168,2.31	c-0.544,0.109-1.15-0.377-2.099-0.8c-0.262-0.116-1.139-0.701-1.599-0.856c-0.246-0.083-0.484,0.279-0.5,0.614	c-0.009,0.184,0.043,0.36,0.21,0.449c0.221,0.118,0.572,0.275,0.683,0.567c0.329,0.865-0.052,4.199-0.73,4.87	c-0.322-0.002-0.593-0.302-0.832-0.224c-0.427,0.237-0.157,1.559,0,1.79c2.627,2.738,2.315,4.766,3.431,6.281	c0.509,0,0.175,0.546,0.56,1.187c0.103,0.329-0.029,0.889-0.085,1.101c0,0.275,0,0.551,0,0.826	c-0.028,0.086-0.056,0.172-0.085,0.258c0,0.241,0,0.482,0,0.722c-0.078,0.352-0.164,0.824-0.238,1.153	c-0.155,0.694,0.446,1.233,0.085,1.893c0,0.406,0.001,0.325-0.238,0.654c0,0.63-0.146,1.957,0,2.426	c0.102,0.326,1.27,1.709,1.562,1.841c0.706,0.319,1.747,0.25,1.41,1.376c-2.067,0.643-3.386-0.362-4.488-0.379l-0.052,0.192	c-0.705,0.001-1.268-0.175-1.422-0.226c-0.001-0.193,0.228-1.673,0.305-1.91c0.079-0.126,0.159-0.253,0.238-0.379	c0.086-0.252-0.087-2.101-0.102-2.599c-0.44-0.328-0.527-1.327-0.527-1.876c-0.127-0.425-0.127-0.928-0.153-1.48	c-0.012-0.259-0.164-0.639-0.068-0.964c0.065-0.221,0.313-0.318,0.374-0.499c0-0.206,0-0.413,0-0.619	c0.116-0.652,0.08-0.952-0.305-1.342c-0.967,0.013-1.1,0.06-1.631-0.775c-0.165-0.259-1.517-2.42-1.648-2.478	c-1.125-0.497-0.901-0.304-1.393-1.187c-0.02,0.001-0.32,0.101-0.584,0.502c-0.402,0.609-1.115,2.589-1.318,3.283	c-0.113,0.387,0.001,0.815-0.17,1.136c-0.124,0.232-0.525,0.307-0.611,0.464c-0.394,0.719-0.099,0.663-0.85,1.17	c-0.135,0.176-0.139,0.441-0.238,0.654c-0.056,0.08-0.113,0.161-0.17,0.241c-0.127,0.275,0.134,0.775,0.085,0.946	c-0.13,0.451-0.301,0.906-0.476,1.325c-0.344,0.827-0.299,1.925-0.646,2.434c-0.174,0.256-0.596,0.007-0.917,0.216	c-0.019,0.178-0.529,1.358-0.628,1.687c0,0.625,0,1.25,0,1.876c0.096,0.316,0.359,0.617,0.281,1.017	c-0.083,0.426-1.546,0.419-2.34,0.304c-0.532-0.077-0.691-0.475-0.682-0.933c0.01-0.542,1.091-4.06,1.026-4.294	c-0.821-0.935,0.22-1.898,0.527-2.77c0.15-0.425,0.058-1.018,0.221-1.411c0.289-0.533,0.577-1.067,0.866-1.6	c0.526-0.504,0.292-0.529,0.577-0.981c0.247-0.392,0.548-0.656,0.374-1.256c-0.35-1.207,0.409-2.918,0.458-4.181	c-0.134-0.143-0.59-0.098-0.648-0.483c-0.116-0.784,0.293-2.172,0.546-2.304c0.112-0.059,0.24-0.007,0.34-0.069	c0-0.589-0.577-3.861-0.139-4.027c0.271-0.102,0.892-0.156,1.011-0.211c-0.007-0.14-0.101-0.437-0.216-0.454	c-0.193-0.027-0.588-0.103-0.902-0.176c-0.965-0.226-0.072-4.019-0.06-4.035c0.129-0.172,0.476-0.151,0.821-0.149	c0.377,0.002,0.751-0.018,0.829-0.335c0.412-0.532-0.318-2.645,1.088-5.168c0.475-0.852,1.384-1.712,2.444-1.348	c0.355,0.122,0.218,0.64,0.842,0.086c0.016-0.323-0.133-0.593-0.221-0.86c-0.145-0.439-0.201-0.848-0.184-1.225	c0.107-2.32,2.929-3.363,5.048-1.82c0.277,0.113,0.438,0.17,0.646,0.327c0.136,0.71,0.831,1.975,0.136,2.805	c-0.284,0.062-0.633,0.223-0.849,0.379c-0.004,0.287,0.033,0.101,0.085,0.272c0.047,0.154,0.136,0.215-0.094,0.31	c-0.029,0.012-0.016,0.108-0.001,0.144c0.575,0.115,1.187-0.108,1.572-0.265h0.459v-0.586h0.219V30.3h0.22v0.85h0.572l0.013,0.35	h8.4L65.224,33.9z"/><g><path fill="#848484" d="M25.7,55.5v-9h11.4l0,0c0-1.657-1.343-3-3-3h-9.6c-1.657,0-3,1.343-3,3v9c0,1.657,1.343,3,3,3h9.6 c1.657,0,3-1.343,3-3l0,0H25.7z"/><path fill="#472b29" d="M34.1,59h-9.6c-1.93,0-3.5-1.57-3.5-3.5v-9c0-1.93,1.57-3.5,3.5-3.5h9.6c1.93,0,3.5,1.57,3.5,3.5 c0,0.276-0.224,0.5-0.5,0.5H26.2v8H37.1c0.276,0,0.5,0.224,0.5,0.5C37.6,57.43,36.029,59,34.1,59z M24.5,44 c-1.379,0-2.5,1.121-2.5,2.5v9c0,1.379,1.121,2.5,2.5,2.5h9.6c1.207,0,2.218-0.86,2.45-2H25.7c-0.276,0-0.5-0.224-0.5-0.5v-9 c0-0.276,0.224-0.5,0.5-0.5h10.85c-0.232-1.14-1.243-2-2.45-2H24.5z"/></g><g><path fill="#848484" d="M65.9,49.5v-3h12c0-1.657-1.343-3-3-3h-9.6c-1.657,0-3,1.343-3,3v3c0,1.657,1.343,3,3,3h9.6v3H62.3 c0,1.657,1.343,3,3,3h10.2c1.657,0,3-1.343,3-3v-3c0-1.657-1.343-3-3-3H65.9z"/><path fill="#472b29" d="M75.5,59H65.3c-1.93,0-3.5-1.57-3.5-3.5c0-0.276,0.224-0.5,0.5-0.5H74.4v-2H65.3 c-1.93,0-3.5-1.57-3.5-3.5v-3c0-1.93,1.57-3.5,3.5-3.5H74.9c1.93,0,3.5,1.57,3.5,3.5c0,0.276-0.224,0.5-0.5,0.5H66.4v2h9.1 c1.93,0,3.5,1.57,3.5,3.5v3C79,57.43,77.43,59,75.5,59z M62.85,56c0.232,1.14,1.243,2,2.45,2h10.2c1.379,0,2.5-1.121,2.5-2.5v-3 c0-1.379-1.121-2.5-2.5-2.5h-9.6c-0.276,0-0.5-0.224-0.5-0.5v-3c0-0.276,0.224-0.5,0.5-0.5h11.45c-0.232-1.14-1.243-2-2.45-2H65.3 c-1.379,0-2.5,1.121-2.5,2.5v3c0,1.379,1.121,2.5,2.5,2.5H74.9c0.276,0,0.5,0.224,0.5,0.5v3c0,0.276-0.224,0.5-0.5,0.5H62.85z"/></g><path fill="#472b29" d="M70,32.199h-0.764c-0.083-0.062-0.187-0.099-0.298-0.099h-0.374c-0.175,0-0.329,0.09-0.418,0.226	h-1.408v-0.709c0-0.276-0.224-0.5-0.5-0.5h-0.223V30.3c0-0.276-0.224-0.5-0.5-0.5H65.2c-0.276,0-0.5,0.224-0.5,0.5v0.5h-7.281	c-0.101-0.175-0.274-0.301-0.479-0.339V30.3c0-0.387-0.313-0.7-0.7-0.7h-0.22c-0.144,0-0.276,0.043-0.388,0.117	c0.012-0.581-0.169-1.151-0.31-1.594c-0.059-0.186-0.115-0.354-0.143-0.498c-0.032-0.17-0.126-0.322-0.264-0.427	c-0.238-0.181-0.438-0.268-0.73-0.387c-1.282-0.897-2.881-1.064-4.191-0.438c-1.129,0.542-1.837,1.605-1.895,2.844	c-0.02,0.412,0.034,0.843,0.159,1.283c-1.099-0.204-2.23,0.46-2.953,1.755c-0.999,1.792-1.015,3.428-1.024,4.405	c-0.002,0.281-0.006,0.633-0.007,0.675c-0.014,0.019-0.027,0.037-0.04,0.058c-0.061,0.004-0.156,0.014-0.32,0.005	c-0.406,0.001-0.965-0.009-1.278,0.408c-0.27,0.331-0.784,3.203-0.402,4.32c0.112,0.33,0.286,0.533,0.457,0.658	c-0.319,0.487-0.24,1.482-0.004,3.437c0.02,0.155,0.037,0.3,0.053,0.428c-0.638,0.459-0.947,2.209-0.833,2.978	c0.066,0.443,0.335,0.678,0.594,0.813c-0.047,0.308-0.122,0.644-0.2,0.993c-0.222,0.997-0.451,2.028-0.184,2.95	c0.049,0.17,0.04,0.196-0.152,0.475c-0.047,0.067-0.095,0.137-0.143,0.213c-0.162,0.258-0.216,0.441-0.251,0.563	c-0.021,0.072-0.031,0.105-0.218,0.284c-0.052,0.051-0.097,0.108-0.131,0.172l-0.897,1.665c-0.129,0.31-0.149,0.644-0.169,0.938	c-0.012,0.193-0.024,0.393-0.065,0.509c-0.063,0.177-0.182,0.388-0.308,0.611c-0.346,0.615-0.905,1.608-0.289,2.581	c-0.079,0.357-0.271,1.068-0.419,1.616c-0.396,1.47-0.571,2.147-0.577,2.474c-0.017,0.908,0.462,1.521,1.282,1.64	c0.235,0.034,0.659,0.085,1.122,0.085c0.86,0,1.853-0.174,2.005-0.946c0.099-0.502-0.089-0.896-0.213-1.158	c-0.019-0.04-0.038-0.078-0.055-0.117V64.35c0.053-0.149,0.146-0.379,0.239-0.614c0.097-0.244,0.17-0.431,0.226-0.576	c0.228,0,0.679-0.02,0.958-0.431c0.271-0.396,0.357-0.912,0.45-1.457c0.065-0.388,0.134-0.788,0.265-1.102	c0.21-0.505,0.379-0.977,0.501-1.398c0.073-0.252,0.016-0.481-0.04-0.703c-0.013-0.051-0.031-0.124-0.042-0.182l0.07-0.1	c0.022-0.033,0.043-0.068,0.06-0.105c0.059-0.126,0.098-0.264,0.133-0.4c0.007-0.026,0.013-0.053,0.017-0.074	c0.442-0.313,0.592-0.506,0.735-0.901c0.026-0.073,0.06-0.165,0.124-0.294c0.008-0.004,0.016-0.008,0.023-0.013	c0.191-0.101,0.48-0.252,0.65-0.571c0.171-0.322,0.182-0.651,0.189-0.916c0.005-0.137,0.009-0.266,0.034-0.352	c0.189-0.646,0.738-2.155,1.094-2.854c0.195,0.23,0.42,0.342,0.888,0.543l0.219,0.096c0.132,0.178,0.478,0.686,1.393,2.137	l0.087,0.138c0.611,0.959,0.992,1.1,1.873,1.103c0.026,0.096,0.015,0.236-0.035,0.515c-0.007,0.041-0.011,0.082-0.011,0.123v0.378	c-0.113,0.111-0.269,0.283-0.345,0.541c-0.114,0.383-0.044,0.744,0.008,1.009c0.014,0.068,0.028,0.131,0.031,0.188l0.011,0.253	c0.019,0.452,0.036,0.881,0.143,1.292c0.009,0.694,0.12,1.54,0.541,2.075c0.009,0.143,0.021,0.313,0.033,0.497	c0.03,0.438,0.091,1.32,0.092,1.542l-0.168,0.269c-0.03,0.048-0.054,0.099-0.072,0.152c-0.103,0.311-0.342,1.867-0.341,2.133	c0.002,0.299,0.193,0.563,0.477,0.659c0.234,0.079,0.863,0.264,1.64,0.264c0.138-0.029,0.308-0.052,0.428-0.142	c0.187,0.04,0.394,0.101,0.618,0.167c0.897,0.262,2.126,0.62,3.708,0.13c0.223-0.069,0.396-0.245,0.463-0.469	c0.144-0.481,0.122-0.9-0.065-1.245c-0.289-0.531-0.846-0.693-1.294-0.823c-0.147-0.043-0.299-0.085-0.381-0.117	c-0.245-0.171-1.12-1.206-1.235-1.441c-0.063-0.209-0.021-1.016,0.002-1.448c0.011-0.19,0.02-0.371,0.025-0.531	c0.191-0.264,0.232-0.429,0.24-0.732c0.225-0.55,0.079-1.048-0.02-1.388c-0.068-0.234-0.108-0.385-0.079-0.513	c0.037-0.168,0.078-0.372,0.119-0.579c0.039-0.199,0.08-0.402,0.118-0.575c0.011-0.05,0.017-0.101,0.017-0.151v-0.609l0.049-0.148	c0.023-0.071,0.036-0.146,0.036-0.222v-0.738c0.143-0.582,0.161-1.052,0.053-1.397c-0.017-0.054-0.039-0.104-0.068-0.152	c-0.091-0.152-0.108-0.301-0.128-0.472c-0.061-0.517-0.266-0.846-0.611-0.982c-0.267-0.435-0.44-0.942-0.637-1.518	c-0.419-1.225-0.938-2.744-2.631-4.537c-0.041-0.119-0.081-0.323-0.102-0.516c0.104,0.029,0.221,0.05,0.347,0.051	c0.001,0,0.003,0,0.004,0c0.185,0,0.361-0.073,0.492-0.202c0.923-0.913,1.293-4.565,0.893-5.614	c-0.005-0.013-0.01-0.025-0.016-0.038c0.119,0.067,0.217,0.121,0.281,0.149c0.271,0.121,0.514,0.247,0.732,0.362	c0.628,0.327,1.17,0.607,1.787,0.484c0.676-0.133,2.536-1.879,2.721-2.866c0.041-0.216,0.053-0.449,0.053-0.658l0.027-0.007	c0.208-0.045,0.386-0.171,0.49-0.34c0.107-0.166,0.149-0.436,0.099-0.626c-0.201-0.771-0.242-0.927-0.251-1.55	c0.045-0.027,0.082-0.049,0.113-0.068c0.282-0.168,0.357-0.248,0.559-0.538h3.48c0.387,0,0.7-0.313,0.7-0.7h0.313	c0.175,0,0.329-0.09,0.419-0.227h1.488c0.089,0.136,0.243,0.226,0.418,0.226h0.375c0.095,0,0.183-0.038,0.259-0.099H70	c0.276,0,0.5-0.224,0.5-0.5v-0.601C70.5,32.423,70.276,32.199,70,32.199z M64.524,33.199h-2.973c-0.11,0-0.269,0.045-0.366,0.095	c-0.178,0.035-0.335,0.138-0.438,0.286l-0.127,0.185c-0.054,0.077-0.084,0.124-0.153,0.172c-0.1,0.06-0.247,0.147-0.489,0.313	c-0.192,0.13-0.308,0.348-0.308,0.58c0.002,0.832,0.021,1.134,0.145,1.667c-0.351,0.081-0.584,0.42-0.536,0.779	c0.021,0.163,0.051,0.587,0.001,0.849c-0.104,0.405-1.331,1.612-1.618,1.756c-0.141,0.028-0.54-0.183-0.866-0.353	c-0.243-0.127-0.511-0.267-0.812-0.4c-0.082-0.036-0.232-0.129-0.411-0.234c-0.416-0.245-0.887-0.522-1.248-0.645	c-0.281-0.094-0.586-0.049-0.839,0.122c-0.332,0.226-0.561,0.664-0.585,1.122c-0.023,0.481,0.192,0.892,0.651,1.138	c0.084,0.043,0.259,0.134,0.287,0.162c0.23,0.603-0.033,2.849-0.381,3.775c-0.197-0.077-0.457-0.139-0.744-0.045	c-0.043,0.014-0.084,0.031-0.123,0.054c-0.187,0.103-0.43,0.319-0.535,0.76c-0.149,0.626,0.041,1.659,0.296,2.034	c0.021,0.033,0.047,0.063,0.074,0.092c1.541,1.606,1.995,2.934,2.395,4.104c0.256,0.748,0.498,1.455,0.978,2.106	c0.058,0.079,0.132,0.144,0.216,0.191c0.026,0.211,0.078,0.509,0.245,0.829c0.008,0.106-0.012,0.343-0.099,0.676	c-0.016,0.058-0.023,0.118-0.023,0.178v0.714l-0.05,0.151c-0.023,0.07-0.035,0.145-0.035,0.219v0.646	c-0.035,0.164-0.071,0.348-0.107,0.528c-0.039,0.196-0.077,0.39-0.112,0.547c-0.109,0.485,0.013,0.903,0.102,1.209	c0.095,0.327,0.104,0.407,0.052,0.501c-0.057,0.104-0.087,0.225-0.087,0.342c0,0.038,0.001,0.07,0.001,0.098l-0.104,0.14	c-0.087,0.119-0.134,0.264-0.134,0.411c0,0.184-0.014,0.43-0.027,0.695c-0.048,0.903-0.07,1.526,0.06,1.939	c0.15,0.484,1.433,2.04,1.942,2.271c0.193,0.088,0.408,0.152,0.618,0.214c0.023,0.007,0.048,0.014,0.073,0.021	c-0.801,0.082-1.458-0.113-2.099-0.302c-0.47-0.138-0.912-0.268-1.372-0.274c-0.19-0.006-0.343,0.061-0.469,0.171	c-0.087-0.01-0.17-0.021-0.247-0.034c0.06-0.399,0.141-0.896,0.187-1.098l0.181-0.289c0.029-0.046,0.053-0.095,0.069-0.146	c0.087-0.254,0.083-0.631-0.02-2.126c-0.021-0.307-0.04-0.573-0.045-0.719c-0.006-0.214-0.104-0.409-0.276-0.537	c-0.105-0.101-0.25-0.614-0.25-1.317c0-0.068-0.01-0.136-0.029-0.2c-0.082-0.273-0.097-0.634-0.113-1.051l-0.012-0.262	c-0.005-0.114-0.027-0.247-0.056-0.39c-0.021-0.105-0.055-0.283-0.023-0.314c0.105-0.101,0.266-0.254,0.35-0.5	c0.024-0.072,0.037-0.148,0.037-0.226v-0.56c0.126-0.748,0.075-1.304-0.508-1.895c-0.134-0.135-0.338-0.217-0.507-0.208	l-0.143,0.002c-0.605,0.015-0.596,0.009-0.889-0.451l-0.084-0.134c-1.558-2.47-1.63-2.502-1.871-2.61l-0.372-0.161	c-0.173-0.074-0.352-0.151-0.383-0.172c-0.025-0.03-0.092-0.154-0.151-0.265l-0.158-0.29c-0.13-0.232-0.381-0.384-0.645-0.358	c-0.297,0.014-0.779,0.275-1.136,0.816c-0.489,0.741-1.235,2.891-1.405,3.472c-0.075,0.257-0.083,0.503-0.089,0.7	c-0.003,0.078-0.006,0.187-0.016,0.254c-0.025,0.014-0.052,0.026-0.077,0.039c-0.17,0.09-0.402,0.212-0.542,0.467	c-0.153,0.281-0.22,0.463-0.295,0.676c-0.012,0.014-0.07,0.074-0.332,0.251c-0.063,0.042-0.118,0.094-0.164,0.153	c-0.167,0.219-0.228,0.456-0.271,0.629c-0.01,0.038-0.018,0.078-0.03,0.115l-0.125,0.179c-0.022,0.033-0.043,0.068-0.061,0.105	c-0.179,0.387-0.074,0.801-0.006,1.075c0.007,0.028,0.015,0.055,0.021,0.08c-0.104,0.346-0.244,0.729-0.417,1.142	c-0.191,0.461-0.276,0.963-0.352,1.405c-0.041,0.241-0.089,0.524-0.149,0.72c-0.187-0.007-0.509,0.018-0.799,0.207	c-0.177,0.115-0.282,0.246-0.304,0.455c-0.035,0.135-0.173,0.472-0.303,0.799c-0.134,0.336-0.262,0.662-0.309,0.815	c-0.02,0.065-0.03,0.134-0.03,0.203v1.875c0,0.068,0.011,0.137,0.03,0.203c0.039,0.13,0.098,0.26,0.16,0.391	c0.01,0.021,0.02,0.041,0.028,0.062c-0.354,0.048-0.968,0.048-1.529-0.032c-0.001,0-0.034-0.057-0.031-0.216	c0.017-0.239,0.325-1.385,0.529-2.143c0.504-1.866,0.548-2.087,0.472-2.358c-0.028-0.102-0.079-0.194-0.147-0.273	c-0.227-0.258-0.185-0.467,0.252-1.242c0.15-0.266,0.305-0.541,0.408-0.833c0.105-0.299,0.125-0.61,0.143-0.886	c0.012-0.186,0.025-0.396,0.033-0.425l0.816-1.508c0.354-0.358,0.443-0.587,0.513-0.825c0.022-0.078,0.033-0.117,0.091-0.207	l0.108-0.163c0.232-0.335,0.584-0.842,0.347-1.661c-0.168-0.578,0.022-1.432,0.206-2.257c0.127-0.57,0.258-1.161,0.279-1.703	c0.008-0.188-0.061-0.37-0.188-0.507c-0.155-0.164-0.343-0.235-0.48-0.28c-0.008-0.448,0.149-1.076,0.273-1.383	c0.092-0.019,0.198-0.054,0.306-0.121c0.204-0.128,0.328-0.352,0.328-0.593c0-0.181-0.047-0.594-0.107-1.097	c-0.069-0.566-0.216-1.778-0.197-2.34c0.071-0.012,0.145-0.022,0.213-0.034c0.281-0.045,0.423-0.069,0.556-0.131	c0.26-0.119,0.421-0.385,0.407-0.67c-0.014-0.28-0.188-1.026-0.816-1.112c-0.151-0.021-0.437-0.074-0.699-0.133	c-0.148-0.468,0.031-1.92,0.227-2.836c0.066-0.002,0.146,0.001,0.229,0.002c0.347,0,1.197,0.005,1.472-0.732	c0.205-0.354,0.209-0.801,0.215-1.394c0.009-0.952,0.021-2.256,0.847-3.736c0.073-0.132,0.727-1.236,1.523-1.051	c0.091,0.12,0.285,0.358,0.646,0.395c0.385,0.055,0.71-0.191,0.971-0.423c0.141-0.125,0.226-0.302,0.234-0.489	c0.019-0.393-0.105-0.716-0.195-0.952l-0.06-0.161c-0.113-0.344-0.163-0.671-0.149-0.974c0.033-0.726,0.436-1.326,1.103-1.646	c0.868-0.417,1.957-0.28,2.834,0.358c0.046,0.033,0.095,0.062,0.147,0.083c0.001,0,0.092,0.037,0.093,0.037	c0.09,0.036,0.154,0.063,0.208,0.087c0.03,0.109,0.066,0.225,0.104,0.345c0.189,0.594,0.324,1.087,0.193,1.415	c-0.288,0.099-0.584,0.247-0.811,0.409c-0.18,0.13-0.288,0.337-0.291,0.559c-0.001,0.079-0.003,0.205,0.031,0.34	c-0.085,0.213-0.074,0.463,0.017,0.675c0.092,0.211,0.28,0.363,0.506,0.408c0.674,0.133,1.326-0.052,1.843-0.251h0.325	c0.179,0,0.343-0.067,0.466-0.178c0.128,0.168,0.331,0.276,0.558,0.276h7.699V33.199z M56.9,35.182h0.133	c0-0.002-0.001-0.003-0.001-0.005v-0.219c0-0.08,0.032-0.158,0.09-0.214c0.057-0.057,0.133-0.089,0.216-0.086	c0.031,0.001,0.058,0,0.08-0.001c-0.075-0.236-0.02-0.433,0.143-0.571c0.3-0.251,0.968-0.229,1.187-0.074	c0.427,0.304,0.232,0.974,0.008,1.325c-0.035,0.054-0.087,0.088-0.145,0.111c0.008,0.066,0.001,0.132-0.035,0.19l-0.091,0.155	c-0.361,0.625-0.667,1.102-1.049,1.104c-0.001,0-0.001,0-0.001,0c-0.1,0-0.194-0.05-0.249-0.133	c-0.233-0.347-0.541-0.844-0.584-1.253c-0.01-0.085,0.018-0.169,0.075-0.232S56.815,35.182,56.9,35.182z"/></svg>